# xmcd
#
# Track frame offsets:
#	150
#	18702
#	35097
#	48484
#	63844
#	77880
#	92439
#	107345
#	119249
#	131702
#	141306
#	155257
#	169139
#	178571
#	192523
#	203971
#	219852
#	233434
#	249467
#	263998
#	276936
#	289035
#
# Disc length: 4063 seconds
#
# Revision: 1
# Processed by: cddbd v1.5.2PL0 Copyright (c) Steve Scherf et al.
# Submitted via: audiograbber 1.83.01
#
DISCID=440fdd16
DTITLE=Western Heart - Western Heart 031 Western Heart
DYEAR=2003
DGENRE=
TTITLE0=The Queen Of El Passo Bump´n´grind - Karen Dee
TTITLE1=The Blizzard  - B Jeff Stone
TTITLE2=Country Music High  - Cliff Lister
TTITLE3=Riding In The Rain  - Dough Hamolton
TTITLE4=Perfect Place  - Shayne Weems
TTITLE5=Tennessee Whiskey And Crazy Woman - Ron Wayne Atwood
TTITLE6=That´s Auer Dawg - David Cline
TTITLE7=Everbodys Got Trouble  - Hal Willis
TTITLE8=Border To Border, Coast To Coast - David Cline
TTITLE9=So Miserable Without You  - David Cline
TTITLE10=Night Wings  - Michael Elvin Hunt
TTITLE11=Big Man In Nashville  - Rusty Evans
TTITLE12=New Love On My Mind - Claude Walton
TTITLE13=Club Hopin  - Danny Sandock
TTITLE14=Pin and Needels  - Ron Jordan
TTITLE15=The Auctineer  - Grant Richardson
TTITLE16=Who, What, Where, Why, How  - Burch Carrie
TTITLE17=Blues Welcome Home - Wonnie Cooper
TTITLE18=Weekend Dad  - Ernie Ashworth
TTITLE19=A Home Upon The Mountain  - The Bud Brothers
TTITLE20=Put Your Faith On The Lord  - The Bud Brothers
TTITLE21=Satisfy Me, I´ll Satisfy You - Butch Carie
EXTD=
EXTT0=
EXTT1=
EXTT2=
EXTT3=
EXTT4=
EXTT5=
EXTT6=
EXTT7=
EXTT8=
EXTT9=
EXTT10=
EXTT11=
EXTT12=
EXTT13=
EXTT14=
EXTT15=
EXTT16=
EXTT17=
EXTT18=
EXTT19=
EXTT20=
EXTT21=
PLAYORDER=
